<?xml version="1.0" encoding="iso-8859-1"?>
<!-- Generator: Adobe Illustrator 23.0.2, SVG Export Plug-In . SVG Version: 6.00 Build 0)  -->
<svg version="1.1" id="Layer_1" xmlns="http://www.w3.org/2000/svg" xmlns:xlink="http://www.w3.org/1999/xlink" x="0px" y="0px"
	 viewBox="0 0 600 600" style="enable-background:new 0 0 600 600;" xml:space="preserve">
<g>
	<g>
		<path style="fill:#EAE6FF;" d="M106.437,363.723c6.97,7.302,14.936,13.662,23.577,18.878c7.856,4.736,16.275,8.548,25.026,11.271
			c34.793,10.828,72.392,4.487,108.671,7.994c15.546,1.496,30.925,4.837,45.695,9.915c14.225,4.893,27.888,11.391,42.344,15.536
			c2.493,0.711,4.966,1.394,7.422,2.031c59.846,15.592,109.621,9.231,144.313-28.617c5.733-6.249,10.339-12.314,14.041-18.13
			c12.831-20.124,14.89-37.35,15.536-49.683c0.037-0.738,0.074-1.458,0.102-2.16c2.271-52.424-14.336-93.393-69.945-121.899
			c-27.001-13.838-56.726-23.281-85.906-29.531c-23.752-5.086-53.255-7.016-69.659-28.839
			c-12.518-16.653-28.072-33.316-46.618-44.098c-10.025-5.834-20.927-9.933-32.697-11.382c-62.45-7.69-82.075,29.023-86.442,64.804
			c-2.178,17.816-0.572,35.402,1.413,47.153c3.655,21.629-5.844,33.851-19.921,50.661c-11.53,13.773-23.66,20.299-31.359,41.762
			C83.904,322.044,89.821,346.322,106.437,363.723z"/>
	</g>
	<path style="opacity:0.35;fill:#BFE2FF;" d="M66.637,301.256c0,37.801,14.22,72.247,37.62,98.28
		c26.845,29.875,65.773,48.658,109.165,48.721c18.964,0.027,37.097-3.544,53.753-10.063c8.612-3.372,18.251-2.985,26.592,1.01
		c9.784,4.68,20.74,7.304,32.309,7.304c4.779,0,9.459-0.451,13.986-1.307c12.922-2.435,24.681-8.197,34.338-16.358
		c6.069-5.131,13.842-7.71,21.786-7.701h0.135c26.25,0,50.633-7.962,70.877-21.606c18.098-12.182,32.877-28.901,42.724-48.531
		c8.585-17.106,13.418-36.43,13.418-56.882c0-70.146-56.873-127.019-127.019-127.019c-7.151,0-14.157,0.604-20.992,1.731
		c-18.098-29.298-50.507-48.829-87.478-48.829c-15.609,0-30.407,3.481-43.653,9.721c-12.597,5.915-23.797,14.32-32.959,24.563
		c-31.11,0.496-59.876,10.659-83.42,27.62C90.758,208.593,66.637,252.111,66.637,301.256z"/>
</g>
<g>
	<g>
		<g>
			<g>
				<g>
					<linearGradient id="SVGID_1_" gradientUnits="userSpaceOnUse" x1="128.3932" y1="288.4139" x2="359.9612" y2="288.4139">
						<stop  offset="0" style="stop-color:#FE7624"/>
						<stop  offset="1" style="stop-color:#FEB745"/>
					</linearGradient>
					<path style="fill:url(#SVGID_1_);" d="M359.961,226.63v123.625c0,6.53-5.306,11.784-11.846,11.784H140.186
						c-6.535,0-11.793-5.253-11.793-11.784V226.63c0-6.53,5.258-11.841,11.793-11.841h207.929
						C354.655,214.789,359.961,220.1,359.961,226.63z"/>
				</g>
				<g>
					<rect x="128.369" y="242.524" style="fill:#FFDA99;" width="231.568" height="25.996"/>
				</g>
				<linearGradient id="SVGID_2_" gradientUnits="userSpaceOnUse" x1="128.3932" y1="288.4139" x2="259.9747" y2="288.4139">
					<stop  offset="0" style="stop-color:#FE7624"/>
					<stop  offset="1" style="stop-color:#FEB745"/>
				</linearGradient>
				<path style="opacity:0.5;fill:url(#SVGID_2_);" d="M259.975,266.945c0,44.743-29.473,82.561-70.124,95.094h-49.664
					c-6.535,0-11.793-5.253-11.793-11.784V226.63c0-6.53,5.258-11.841,11.793-11.841h105.076
					C254.621,229.982,259.975,247.825,259.975,266.945z"/>
				<linearGradient id="SVGID_3_" gradientUnits="userSpaceOnUse" x1="128.3932" y1="273.0915" x2="240.859" y2="273.0915">
					<stop  offset="0" style="stop-color:#FE7624"/>
					<stop  offset="1" style="stop-color:#FEB745"/>
				</linearGradient>
				<path style="opacity:0.25;fill:url(#SVGID_3_);" d="M240.859,231.893c0,54.98-44.579,99.501-99.506,99.501
					c-4.413,0-8.71-0.268-12.96-0.902V226.63c0-6.53,5.258-11.841,11.793-11.841h99.185
					C240.383,220.311,240.859,226.044,240.859,231.893z"/>
			</g>
			<g>
				<polygon style="fill:#FFDA99;" points="229.582,284.322 232.233,289.709 238.178,290.564 233.875,294.76 234.898,300.676 
					229.582,297.882 224.267,300.676 225.28,294.76 220.977,290.564 226.917,289.709 				"/>
				<polygon style="fill:#FFDA99;" points="249.701,284.322 252.352,289.709 258.297,290.564 253.994,294.76 255.017,300.676 
					249.701,297.882 244.386,300.676 245.399,294.76 241.107,290.564 247.036,289.709 				"/>
				<polygon style="fill:#FFDA99;" points="269.821,284.322 272.471,289.709 278.416,290.564 274.114,294.76 275.136,300.676 
					269.821,297.882 264.505,300.676 265.518,294.76 261.221,290.564 267.156,289.709 				"/>
				<polygon style="fill:#FFDA99;" points="289.94,284.322 292.6,289.709 298.535,290.564 294.233,294.76 295.256,300.676 
					289.94,297.882 284.62,300.676 285.633,294.76 281.34,290.564 287.275,289.709 				"/>
				<polygon style="fill:#FFDA99;" points="310.055,284.322 312.719,289.709 318.655,290.564 314.347,294.76 315.37,300.676 
					310.055,297.882 304.739,300.676 305.752,294.76 301.459,290.564 307.394,289.709 				"/>
				<polygon style="fill:#FFDA99;" points="330.173,284.322 332.838,289.709 338.769,290.564 334.476,294.76 335.489,300.676 
					330.173,297.882 324.858,300.676 325.871,294.76 321.579,290.564 327.513,289.709 				"/>
				<rect x="226.26" y="309.041" style="fill:#FFDA99;" width="110.569" height="3.784"/>
				<rect x="226.26" y="317.559" style="fill:#FFDA99;" width="110.569" height="3.774"/>
				<path style="fill:#FFDA99;" d="M191.553,324.048h-36.613c-2.97,0-5.378-2.408-5.378-5.378v-29.505
					c0-2.97,2.408-5.378,5.378-5.378h36.613c2.97,0,5.378,2.408,5.378,5.378v29.505C196.931,321.64,194.523,324.048,191.553,324.048
					z"/>
			</g>
		</g>
		<g>
			<g>
				<g>
					<g>
						<g>
							<linearGradient id="SVGID_4_" gradientUnits="userSpaceOnUse" x1="204.0744" y1="328.5325" x2="239.8092" y2="328.5325">
								<stop  offset="0" style="stop-color:#FE7624"/>
								<stop  offset="1" style="stop-color:#FEB745"/>
							</linearGradient>
							<path style="fill:url(#SVGID_4_);" d="M236.009,320.357c0,0,20.045,25.57-31.934,23.826
								C204.074,344.183,214.987,294.238,236.009,320.357z"/>
							<path style="fill:#FFFFFF;" d="M229.033,314.117c-0.299,12.532-24.958,30.066-24.958,30.066S212.579,305.276,229.033,314.117
								z"/>
						</g>
						<g>
							<linearGradient id="SVGID_5_" gradientUnits="userSpaceOnUse" x1="168.3351" y1="328.5325" x2="204.0744" y2="328.5325">
								<stop  offset="0" style="stop-color:#FE7624"/>
								<stop  offset="1" style="stop-color:#FEB745"/>
							</linearGradient>
							<path style="fill:url(#SVGID_5_);" d="M172.134,320.357c0,0-20.042,25.57,31.94,23.826
								C204.074,344.183,193.161,294.238,172.134,320.357z"/>
							<path style="fill:#FFFFFF;" d="M179.11,314.117c0.299,12.532,24.964,30.066,24.964,30.066S195.57,305.276,179.11,314.117z"/>
						</g>
					</g>
					<g>
						<rect x="167.217" y="349.764" style="fill:#FE7624;" width="73.715" height="58.683"/>
						<rect x="196.668" y="349.764" style="fill:#C9EEBC;" width="14.806" height="58.683"/>
						<rect x="163.224" y="343.737" style="fill:#FEB745;" width="81.701" height="12.055"/>
					</g>
					<rect x="196.668" y="343.737" style="fill:#FFFFFF;" width="14.806" height="12.055"/>
				</g>
			</g>
			<g>
				<g>
					<g>
						<path style="fill:#FFFFFF;" d="M357.696,282.131c0,0,27.66,35.284-44.067,32.878
							C313.629,315.009,328.689,246.089,357.696,282.131z"/>
						<path style="fill:#C9EEBC;" d="M348.07,273.521c-0.413,17.294-34.441,41.488-34.441,41.488S325.365,261.32,348.07,273.521z"/>
					</g>
					<g>
						<path style="fill:#FFFFFF;" d="M269.554,282.131c0,0-27.656,35.284,44.075,32.878
							C313.629,315.009,298.57,246.089,269.554,282.131z"/>
						<path style="fill:#C9EEBC;" d="M279.181,273.521c0.413,17.294,34.449,41.488,34.449,41.488S301.894,261.32,279.181,273.521z"
							/>
					</g>
				</g>
				<g>
					<linearGradient id="SVGID_6_" gradientUnits="userSpaceOnUse" x1="262.7694" y1="363.1999" x2="364.4896" y2="363.1999">
						<stop  offset="0" style="stop-color:#FE7624"/>
						<stop  offset="1" style="stop-color:#FEB745"/>
					</linearGradient>
					<rect x="262.769" y="322.711" style="fill:url(#SVGID_6_);" width="101.72" height="80.978"/>
					<rect x="303.409" y="322.711" style="fill:#C9EEBC;" width="20.432" height="80.978"/>
					<rect x="257.259" y="314.393" style="fill:#FE7624;" width="112.741" height="16.635"/>
				</g>
				<rect x="303.409" y="314.393" style="fill:#FFFFFF;" width="20.432" height="16.635"/>
			</g>
			<g>
				<g>
					<g>
						<path style="fill:#FFFFFF;" d="M304.353,333.115c0,0,18.072,23.053-28.791,21.48
							C275.562,354.595,285.401,309.567,304.353,333.115z"/>
						<linearGradient id="SVGID_7_" gradientUnits="userSpaceOnUse" x1="275.5622" y1="340.4534" x2="298.0638" y2="340.4534">
							<stop  offset="0" style="stop-color:#50C0E0"/>
							<stop  offset="1" style="stop-color:#23519B"/>
						</linearGradient>
						<path style="fill:url(#SVGID_7_);" d="M298.064,327.49c-0.27,11.299-22.502,27.106-22.502,27.106
							S283.23,319.518,298.064,327.49z"/>
					</g>
					<g>
						<path style="fill:#FFFFFF;" d="M246.766,333.115c0,0-18.069,23.053,28.796,21.48
							C275.562,354.595,265.723,309.567,246.766,333.115z"/>
						<linearGradient id="SVGID_8_" gradientUnits="userSpaceOnUse" x1="253.0551" y1="340.4534" x2="275.5622" y2="340.4534">
							<stop  offset="0" style="stop-color:#50C0E0"/>
							<stop  offset="1" style="stop-color:#23519B"/>
						</linearGradient>
						<path style="fill:url(#SVGID_8_);" d="M253.055,327.49c0.27,11.299,22.507,27.106,22.507,27.106
							S267.895,319.518,253.055,327.49z"/>
					</g>
				</g>
				<g>
					<linearGradient id="SVGID_9_" gradientUnits="userSpaceOnUse" x1="246.5643" y1="362.9517" x2="304.5969" y2="409.2395">
						<stop  offset="0" style="stop-color:#50C0E0"/>
						<stop  offset="1" style="stop-color:#23519B"/>
					</linearGradient>
					<rect x="242.333" y="359.628" style="fill:url(#SVGID_9_);" width="66.458" height="52.907"/>
					<rect x="268.885" y="359.628" style="opacity:0.25;fill:#22418A;" width="13.349" height="52.907"/>
					<rect x="238.733" y="354.194" style="fill:#22418A;" width="73.659" height="10.868"/>
				</g>
				<rect x="268.885" y="354.194" style="fill:#FFFFFF;" width="13.349" height="10.868"/>
			</g>
		</g>
	</g>
	<g>
		<g>
			<g>
				<g>
					<g>
						<linearGradient id="SVGID_10_" gradientUnits="userSpaceOnUse" x1="273.1515" y1="175.0894" x2="396.9844" y2="175.0894">
							<stop  offset="0" style="stop-color:#50C0E0"/>
							<stop  offset="1" style="stop-color:#23519B"/>
						</linearGradient>
						<polygon style="fill:url(#SVGID_10_);" points="334.705,237.815 273.151,182.219 344.274,112.364 396.984,159.973 						"/>
						<polygon style="opacity:0.25;fill:#FEB745;" points="334.705,237.815 308.796,214.015 396.984,159.973 						"/>
						<g>
							<g>
								<path style="fill:#C9EEBC;" d="M375.219,158.734c-1.568,1.736-4.246,1.872-5.982,0.304
									c-1.736-1.568-1.872-4.246-0.304-5.982c1.568-1.736,4.246-1.872,5.983-0.304C376.65,154.32,376.786,156.998,375.219,158.734
									z"/>
							</g>
							<g>
								<path style="fill:#1F9FDE;" d="M373.813,157.465c-0.867,0.96-2.348,1.035-3.308,0.168c-0.96-0.867-1.035-2.348-0.168-3.308
									c0.867-0.96,2.348-1.035,3.308-0.168C374.605,155.024,374.68,156.505,373.813,157.465z"/>
							</g>
						</g>
						<g>
							<g>
								<path style="fill:#C9EEBC;" d="M352.881,138.808c-1.568,1.736-4.246,1.872-5.982,0.304
									c-1.736-1.568-1.872-4.246-0.304-5.982c1.568-1.736,4.246-1.872,5.982-0.304
									C354.313,134.393,354.449,137.072,352.881,138.808z"/>
							</g>
							<g>
								<path style="fill:#1F9FDE;" d="M351.476,137.539c-0.867,0.96-2.348,1.035-3.308,0.168c-0.96-0.867-1.035-2.348-0.168-3.308
									c0.867-0.96,2.348-1.035,3.308-0.168C352.268,135.098,352.343,136.579,351.476,137.539z"/>
							</g>
						</g>
						<path style="fill:#C9EEBC;" d="M342.117,167.181c-6.763-6.109-7.296-16.581-1.187-23.344c0.37-0.409,1.001-0.441,1.41-0.072
							c0.409,0.37,0.441,1.001,0.072,1.41c-5.371,5.946-4.902,15.153,1.044,20.524c5.946,5.371,15.153,4.903,20.524-1.044
							c0.37-0.409,1.001-0.441,1.41-0.072c0.409,0.369,0.441,1.001,0.072,1.41C359.352,172.757,348.88,173.289,342.117,167.181z"/>
						<path style="fill:#C9EEBC;" d="M371.99,155.956c-0.409-0.369-0.441-1.001-0.072-1.41l10.56-11.692
							c5.181-5.736,4.729-14.618-1.007-19.799c-5.736-5.181-14.618-4.729-19.799,1.007l-10.56,11.692
							c-0.37,0.409-1.001,0.441-1.41,0.072c-0.409-0.37-0.441-1.001-0.072-1.41l10.56-11.692c5.919-6.553,16.066-7.069,22.619-1.15
							c6.553,5.919,7.069,16.066,1.15,22.619l-10.56,11.692C373.03,156.294,372.399,156.326,371.99,155.956z"/>
					</g>
					<g>
						<g>
							
								<linearGradient id="SVGID_11_" gradientUnits="userSpaceOnUse" x1="-353.5366" y1="560.7092" x2="-289.0823" y2="560.7092" gradientTransform="matrix(0.7093 0.3729 -0.4319 0.8215 824.6224 -173.2846)">
								<stop  offset="0" style="stop-color:#22418A"/>
								<stop  offset="1" style="stop-color:#1F9FDE"/>
							</linearGradient>
							<polygon style="fill:url(#SVGID_11_);" points="357.358,217.672 316.836,183.755 351.065,123.068 392.397,138.748 							"/>
							<polygon style="opacity:0.25;fill:#22418A;" points="357.358,217.672 338.026,201.195 392.397,138.748 							"/>
							<g>
								<g>
									<path style="fill:#C9EEBC;" d="M375.95,144.351c-0.864,1.699-2.734,2.549-4.16,1.908c-1.407-0.634-1.85-2.486-1.006-4.145
										c0.844-1.659,2.671-2.528,4.098-1.934C376.328,140.781,376.814,142.652,375.95,144.351z"/>
								</g>
								<g>
									<path style="fill:#23519B;" d="M374.774,143.842c-0.475,0.935-1.504,1.407-2.292,1.058
										c-0.783-0.347-1.033-1.373-0.564-2.296c0.469-0.922,1.485-1.401,2.274-1.066
										C374.986,141.875,375.249,142.908,374.774,143.842z"/>
								</g>
							</g>
							<g>
								<g>
									<path style="fill:#C9EEBC;" d="M358.658,137.012c-0.796,1.566-2.436,2.387-3.648,1.84c-1.198-0.54-1.526-2.215-0.747-3.747
										c0.779-1.532,2.385-2.368,3.6-1.861C359.092,133.757,359.454,135.447,358.658,137.012z"/>
								</g>
								<g>
									<path style="fill:#23519B;" d="M357.659,136.579c-0.438,0.862-1.341,1.318-2.011,1.02
										c-0.666-0.295-0.852-1.224-0.419-2.075c0.433-0.851,1.325-1.312,1.996-1.027
										C357.901,134.785,358.097,135.717,357.659,136.579z"/>
								</g>
							</g>
							<path style="fill:#C9EEBC;" d="M354.771,159.112c-4.765-2.637-5.987-9.584-2.929-15.598c0.185-0.364,0.561-0.551,0.841-0.417
								c0.281,0.134,0.358,0.54,0.172,0.906c-2.703,5.315-1.602,11.437,2.615,13.733c4.402,2.398,10.508-0.249,13.431-5.997
								c0.201-0.395,0.632-0.588,0.963-0.43c0.332,0.159,0.438,0.61,0.236,1.008C366.757,158.892,359.775,161.882,354.771,159.112z"
								/>
							<path style="fill:#C9EEBC;" d="M373.285,143.287c-0.336-0.146-0.444-0.583-0.243-0.977l5.734-11.274
								c2.813-5.531,1.163-11.275-3.497-12.746c-4.47-1.411-10.096,1.655-12.705,6.784l-5.317,10.454
								c-0.186,0.366-0.57,0.561-0.856,0.437c-0.285-0.124-0.366-0.519-0.181-0.883l5.29-10.401
								c2.965-5.829,9.361-9.343,14.469-7.768c5.356,1.652,7.281,8.227,4.049,14.581l-5.766,11.337
								C374.059,143.23,373.622,143.433,373.285,143.287z"/>
						</g>
						<polygon style="fill:#23519B;" points="392.397,138.748 376.189,218.96 367.425,216.783 357.358,217.672 						"/>
						<polygon style="fill:#22418A;" points="367.425,216.783 392.207,139.865 376.189,218.96 						"/>
					</g>
				</g>
				<g>
					
						<linearGradient id="SVGID_12_" gradientUnits="userSpaceOnUse" x1="418.138" y1="602.6901" x2="426.1292" y2="602.6901" gradientTransform="matrix(0.9414 0.3373 -0.3373 0.9414 232.3831 -553.6351)">
						<stop  offset="0" style="stop-color:#FEBD9F"/>
						<stop  offset="1" style="stop-color:#FFDA99"/>
					</linearGradient>
					<path style="fill:url(#SVGID_12_);" d="M430.182,157.671c0,0-9.084,1.422-8.045-1.237s5.811-2.682,5.811-2.682L430.182,157.671
						z"/>
					<g>
						<path style="fill:#4F4259;" d="M400.157,387.679c0,0-1.309-1.228-1.882-0.982c-0.573,0.245-3.928,0.245-4.992,5.647
							c-1.064,5.401-1.309,4.419-1.309,4.419l1.391,1.8l1.8-0.982c0,0,7.447,10.966,13.012,13.421
							c5.565,2.455,3.11-3.437,3.11-3.437s-1.964-6.383-4.419-10.147C404.413,393.653,400.157,387.679,400.157,387.679z"/>
						<linearGradient id="SVGID_13_" gradientUnits="userSpaceOnUse" x1="403.977" y1="386.4633" x2="404.5708" y2="407.6433">
							<stop  offset="0" style="stop-color:#FEBD9F"/>
							<stop  offset="1" style="stop-color:#FFDA99"/>
						</linearGradient>
						<path style="fill:url(#SVGID_13_);" d="M406.674,397.47l0.849,1.093c0,0-0.698-1.047-1.451-2.414l-1.335-2.799
							c-0.361-0.946-0.58-1.836-0.488-2.479c0.327-2.291,5.074-7.529,5.074-7.529l-4.419-4.255l-5.533,7.991
							c-0.45,0.191-1.185,0.839-0.469,3.029c0.982,3.001,8.456,14.894,10.966,17.185
							C409.868,407.292,410.411,405.797,406.674,397.47z"/>
						<path style="fill:#4F4259;" d="M369.06,379.496c0,0-1.309-1.227-1.882-0.982c-0.573,0.246-3.928,0.246-4.992,5.647
							c-1.064,5.401-1.309,4.419-1.309,4.419l1.391,1.8l1.8-0.982c0,0,7.447,10.966,13.012,13.421
							c5.565,2.455,3.11-3.437,3.11-3.437s-1.964-6.383-4.419-10.147C373.316,385.47,369.06,379.496,369.06,379.496z"/>
						<linearGradient id="SVGID_14_" gradientUnits="userSpaceOnUse" x1="372.8802" y1="378.28" x2="373.474" y2="399.46">
							<stop  offset="0" style="stop-color:#FEBD9F"/>
							<stop  offset="1" style="stop-color:#FFDA99"/>
						</linearGradient>
						<path style="fill:url(#SVGID_14_);" d="M375.577,389.286l0.849,1.093c0,0-0.698-1.047-1.451-2.414l-1.335-2.799
							c-0.361-0.946-0.58-1.836-0.488-2.48c0.327-2.291,5.074-7.529,5.074-7.529l-4.419-4.255l-5.533,7.992
							c-0.45,0.191-1.185,0.839-0.469,3.029c0.982,3.001,8.456,14.894,10.966,17.185
							C378.771,399.109,379.314,397.614,375.577,389.286z"/>
						<linearGradient id="SVGID_15_" gradientUnits="userSpaceOnUse" x1="367.7146" y1="324.5834" x2="438.8494" y2="324.5834">
							<stop  offset="0.2975" style="stop-color:#22418A"/>
							<stop  offset="1" style="stop-color:#1F9FDE"/>
						</linearGradient>
						<path style="fill:url(#SVGID_15_);" d="M369.951,264.228c0.595-2.382,44.19,0,44.19,0s27.005,29.46,24.55,59.411
							c-2.455,29.951-27.496,62.357-27.496,62.357l-6.383-5.892c0,0,12.766-42.717,10.802-51.064
							c-1.964-8.347-9.82-32.243-9.82-32.243s5.401,33.225,1.473,43.045c-3.928,9.82-27.496,39.28-27.496,39.28l-8.347-7.692
							c0,0,16.858-30.115,17.349-38.953c0.491-8.838-15.385-27.005-17.349-37.807C369.46,283.868,365.041,283.868,369.951,264.228z"
							/>
						<linearGradient id="SVGID_16_" gradientUnits="userSpaceOnUse" x1="421.4214" y1="152.5393" x2="436.3278" y2="152.5393">
							<stop  offset="0" style="stop-color:#FEBD9F"/>
							<stop  offset="1" style="stop-color:#FFDA99"/>
						</linearGradient>
						<path style="fill:url(#SVGID_16_);" d="M432.236,161.573l-2.619-3.764c0,0-7.856-0.818-8.183-6.547
							c-0.327-5.728,5.728-10.802,10.475-5.565c0,0,4.255,3.273,4.092,7.692c-0.164,4.419,0.327,6.547,0.327,6.547L432.236,161.573z
							"/>
						
							<linearGradient id="SVGID_17_" gradientUnits="userSpaceOnUse" x1="796.6487" y1="1222.2751" x2="811.5556" y2="1222.2751" gradientTransform="matrix(0.5539 0.8326 -0.8326 0.5539 951.0666 -1223.4343)">
							<stop  offset="0" style="stop-color:#FEBD9F"/>
							<stop  offset="1" style="stop-color:#FFDA99"/>
						</linearGradient>
						<path style="fill:url(#SVGID_17_);" d="M373.134,130.882l1.683-4.265c0,0-3.67-6.994,0.917-10.44
							c4.588-3.446,12.167-1.215,10.435,5.638c0,0-0.368,5.356-4.138,7.668c-3.77,2.312-5.269,3.899-5.269,3.899L373.134,130.882z"
							/>
						<linearGradient id="SVGID_18_" gradientUnits="userSpaceOnUse" x1="401.9487" y1="161.9891" x2="404.8947" y2="267.0635">
							<stop  offset="0" style="stop-color:#FFBB01"/>
							<stop  offset="1" style="stop-color:#FE7624"/>
						</linearGradient>
						<path style="fill:url(#SVGID_18_);" d="M362.514,198.07c0,0,7.856,10.802,6.874,21.604
							c-0.982,10.802-6.547,36.661-2.619,41.899c3.928,5.237,18.658,0.655,29.787,1.637c11.129,0.982,19.313,4.583,24.877,0.982
							c5.565-3.601-4.583-11.457-2.291-30.115c2.291-18.658,4.583-31.588,21.277-34.534c16.694-2.946,23.077-11.293,17.185-17.676
							c-5.892-6.383-20.622-24.55-20.622-24.55l-7.856,3.437c0,0,13.257,21.113,10.311,24.059
							c-2.946,2.946-25.532,2.946-33.879,5.401c-8.347,2.455-19.149,1.473-24.55,0c-5.782-1.577-18.167-17.185-15.712-27.987
							c2.455-10.802,16.203-29.46,16.203-29.46l-10.311-6.383c0,0-31.424,30.442-25.532,41.735
							C351.548,179.413,362.514,198.07,362.514,198.07z"/>
						<path style="fill:#22418A;" d="M395.356,188.36c0,0-13.312,3.492-14.839-6.11c-1.527-9.602-3.055-29.678,15.494-31.206
							c18.549-1.528,19.64,32.733,16.367,34.916C409.104,188.141,395.356,188.36,395.356,188.36z"/>
						<linearGradient id="SVGID_19_" gradientUnits="userSpaceOnUse" x1="385.0727" y1="173.1113" x2="389.0007" y2="173.1113">
							<stop  offset="0" style="stop-color:#FEBD9F"/>
							<stop  offset="1" style="stop-color:#FFDA99"/>
						</linearGradient>
						<ellipse style="fill:url(#SVGID_19_);" cx="387.037" cy="173.111" rx="1.964" ry="3.11"/>
						<linearGradient id="SVGID_20_" gradientUnits="userSpaceOnUse" x1="390.1183" y1="191.9603" x2="402.995" y2="191.9603">
							<stop  offset="0" style="stop-color:#FEBD9F"/>
							<stop  offset="1" style="stop-color:#FFDA99"/>
						</linearGradient>
						<path style="fill:url(#SVGID_20_);" d="M391.101,184.868l-0.982,9.275c0,0-0.218,5.346,6.438,5.346
							c6.656,0,6.438-4.801,6.438-4.801l-1.2-10.257L391.101,184.868z"/>
						<linearGradient id="SVGID_21_" gradientUnits="userSpaceOnUse" x1="386.9548" y1="176.1937" x2="407.686" y2="176.1937">
							<stop  offset="0" style="stop-color:#FEBD9F"/>
							<stop  offset="1" style="stop-color:#FFDA99"/>
						</linearGradient>
						<ellipse style="fill:url(#SVGID_21_);" cx="397.32" cy="176.194" rx="10.366" ry="14.675"/>
						<path style="fill:#22418A;" d="M385.536,166.537c0,0,1.855,4.91,3.819,4.91c1.964,0,7.092-0.764,9.711-1.2
							c0.218-0.436,0.546-2.4,0.218-4.255c0,0,0.655,4.474,1.419,4.474c0.764,0,7.965,0.109,7.965,0.109s4.146-4.692-1.2-9.165
							C402.121,156.936,385.209,155.954,385.536,166.537z"/>
						<linearGradient id="SVGID_22_" gradientUnits="userSpaceOnUse" x1="385.8119" y1="165.351" x2="406.704" y2="165.351">
							<stop  offset="0" style="stop-color:#FFBB01"/>
							<stop  offset="1" style="stop-color:#FE7624"/>
						</linearGradient>
						<path style="fill:url(#SVGID_22_);" d="M387.037,170.002c0,0,9.52-10.966,19.667-5.319c0,0-3.273-3.764-9.002-4.092
							c-5.728-0.327-10.802,5.156-11.866,9.084C385.836,169.674,385.536,170.411,387.037,170.002z"/>
					</g>
					<g>
						<g>
							<g>
								
									<linearGradient id="SVGID_23_" gradientUnits="userSpaceOnUse" x1="697.8973" y1="-817.3711" x2="759.64" y2="-817.3711" gradientTransform="matrix(0.6369 -0.4863 0.5632 0.7376 457.4828 1144.9214)">
									<stop  offset="0" style="stop-color:#FE7624"/>
									<stop  offset="1" style="stop-color:#FEB745"/>
								</linearGradient>
								<polygon style="fill:url(#SVGID_23_);" points="505.999,205.415 460.185,226.942 421.265,172.725 451.559,143.138 								
									"/>
								
									<linearGradient id="SVGID_24_" gradientUnits="userSpaceOnUse" x1="730.0194" y1="-817.3711" x2="759.64" y2="-817.3711" gradientTransform="matrix(0.6369 -0.4863 0.5632 0.7376 457.4828 1144.9214)">
									<stop  offset="0" style="stop-color:#FE7624"/>
									<stop  offset="1" style="stop-color:#FEB745"/>
								</linearGradient>
								<polygon style="fill:url(#SVGID_24_);" points="505.999,205.415 483.885,215.566 451.559,143.138 								"/>
								<g>
									<g>
										<path style="fill:#C9EEBC;" d="M449.793,159.688c1.128,1.436,1.112,3.404-0.021,4.383
											c-1.118,0.967-2.906,0.605-4.007-0.798c-1.101-1.402-1.119-3.34-0.027-4.341
											C446.844,157.92,448.666,158.252,449.793,159.688z"/>
									</g>
									<g>
										
											<linearGradient id="SVGID_25_" gradientUnits="userSpaceOnUse" x1="1304.8298" y1="-502.6325" x2="1307.8047" y2="-502.6325" gradientTransform="matrix(0.791 -0.6118 0.6118 0.791 -278.0235 1358.2832)">
											<stop  offset="0" style="stop-color:#FE7624"/>
											<stop  offset="1" style="stop-color:#FEB745"/>
										</linearGradient>
										<path style="fill:url(#SVGID_25_);" d="M448.876,160.505c0.62,0.79,0.616,1.874-0.005,2.419
											c-0.617,0.54-1.61,0.344-2.222-0.436c-0.612-0.78-0.618-1.855-0.009-2.406
											C447.253,159.527,448.256,159.715,448.876,160.505z"/>
									</g>
								</g>
								<g>
									<g>
										<path style="fill:#C9EEBC;" d="M436.442,171.752c1.039,1.324,1.091,3.079,0.127,3.912
											c-0.953,0.823-2.541,0.433-3.557-0.862c-1.017-1.295-1.095-3.027-0.165-3.878
											C433.789,170.062,435.403,170.429,436.442,171.752z"/>
									</g>
									<g>
										
											<linearGradient id="SVGID_26_" gradientUnits="userSpaceOnUse" x1="1287.5146" y1="-501.2877" x2="1290.0468" y2="-501.2877" gradientTransform="matrix(0.791 -0.6118 0.6118 0.791 -278.0235 1358.2832)">
											<stop  offset="0" style="stop-color:#FE7624"/>
											<stop  offset="1" style="stop-color:#FEB745"/>
										</linearGradient>
										<path style="fill:url(#SVGID_26_);" d="M435.663,172.445c0.572,0.728,0.604,1.696,0.075,2.159
											c-0.525,0.46-1.407,0.247-1.972-0.473c-0.565-0.72-0.605-1.68-0.087-2.149
											C434.201,171.511,435.091,171.717,435.663,172.445z"/>
									</g>
								</g>
								<path style="fill:#C9EEBC;" d="M454.076,184.044c-4.213,3.076-10.742,1.336-14.734-3.747
									c-0.241-0.307-0.252-0.71-0.022-0.899c0.23-0.19,0.614-0.094,0.856,0.215c3.528,4.493,9.291,6.005,12.987,3.268
									c3.859-2.858,4.022-9.23,0.207-14.088c-0.262-0.334-0.256-0.786,0.015-1.01c0.272-0.225,0.707-0.135,0.971,0.202
									C458.719,173.541,458.501,180.813,454.076,184.044z"/>
								<path style="fill:#C9EEBC;" d="M447.794,161.574c-0.262,0.233-0.686,0.151-0.947-0.183l-7.482-9.529
									c-3.671-4.675-9.327-5.558-12.485-2.103c-3.029,3.314-2.634,9.44,0.77,13.775l6.939,8.837
									c0.243,0.309,0.258,0.721,0.035,0.92c-0.223,0.198-0.599,0.109-0.84-0.199l-6.903-8.791
									c-3.869-4.927-4.342-11.902-0.913-15.704c3.596-3.987,10.084-3.008,14.302,2.363l7.524,9.583
									C448.056,160.879,448.056,161.341,447.794,161.574z"/>
							</g>
							
								<linearGradient id="SVGID_27_" gradientUnits="userSpaceOnUse" x1="1351.7023" y1="-600.0354" x2="1368.98" y2="-599.9285" gradientTransform="matrix(0.7145 -0.6996 0.6996 0.7145 -68.7234 1550.0991)">
								<stop  offset="0" style="stop-color:#FE7624"/>
								<stop  offset="1" style="stop-color:#FEB745"/>
							</linearGradient>
							<polygon style="fill:url(#SVGID_27_);" points="451.559,143.138 514.714,189.574 509.287,196.31 505.999,205.415 							"/>
							<polygon style="fill:#FE7624;" points="509.287,196.31 452.453,143.754 514.714,189.574 							"/>
						</g>
					</g>
					<path style="fill:#FEBD9F;" d="M424.326,151.153c0,0,4.092,4.746,5.837,3.328c1.746-1.419,5.128-5.456,2.946-7.311
						C430.927,145.315,423.562,144.933,424.326,151.153z"/>
					<linearGradient id="SVGID_28_" gradientUnits="userSpaceOnUse" x1="423.3467" y1="149.1677" x2="433.4919" y2="149.1677">
						<stop  offset="0" style="stop-color:#FEBD9F"/>
						<stop  offset="1" style="stop-color:#FFDA99"/>
					</linearGradient>
					<path style="fill:url(#SVGID_28_);" d="M423.398,150.825c0,0,4.692,3.71,6.438,2.291c1.746-1.418,5.128-5.456,2.946-7.31
						C430.599,143.951,422.634,144.606,423.398,150.825z"/>
				</g>
				<path style="fill:#C9EEBC;" d="M361.673,124.062c5.181-5.736,14.063-6.188,19.799-1.007c3.797,3.429,5.276,8.48,4.341,13.166
					c0.645,0.204,1.27,0.473,1.868,0.803c1.24-5.468-0.423-11.433-4.871-15.451c-6.553-5.919-16.7-5.403-22.619,1.15l-1.174,1.299
					c0.598,0.315,1.167,0.685,1.701,1.095L361.673,124.062z"/>
				<path style="fill:#C9EEBC;" d="M361.983,126.237l0.591-1.162c2.609-5.129,8.235-8.196,12.705-6.784
					c4.66,1.471,6.31,7.215,3.497,12.746l0.228,0.163c0.405,0.184,0.607,0.373,0.982,0.6l0.042-0.303
					c3.232-6.354,1.307-12.929-4.049-14.581c-5.108-1.576-11.504,1.938-14.469,7.768l-0.386,0.759
					c0.167,0.139,0.331,0.28,0.489,0.425C361.74,125.984,361.863,126.108,361.983,126.237z"/>
				<linearGradient id="SVGID_29_" gradientUnits="userSpaceOnUse" x1="374.8171" y1="125.3973" x2="382.6993" y2="125.3973">
					<stop  offset="0" style="stop-color:#FEBD9F"/>
					<stop  offset="1" style="stop-color:#FFDA99"/>
				</linearGradient>
				<path style="fill:url(#SVGID_29_);" d="M374.817,126.616c0,0,6.355-8.088,7.664-6.697c1.309,1.391-3.706,11.117-3.706,11.117
					L374.817,126.616z"/>
			</g>
		</g>
	</g>
</g>
</svg>
